<svg aria-hidden="true" style="position: absolute; width: 0; height: 0; overflow: hidden;" version="1.1" xmlns="http://www.w3.org/2000/svg" xmlns:xlink="http://www.w3.org/1999/xlink">
<defs>
<symbol id="ice-cream" viewBox="0 0 32 32">
<path fill="#f6a230" style="fill: var(--color1, #f6a230)" d="M20.654 20.668l3.765-8.243 0.007-2.148-13.221 0c-0.606-0-1.107 0.445-1.196 1.027l-0 5.216c-0 0.040-0.002 0.079-0.006 0.118l0-0.005v0c-0.001 0.013-0.003 0.026-0.005 0.039v0c-0.003 0.023-0.006 0.047-0.011 0.070l-0 0c-0.008 0.042-0.016 0.077-0.026 0.111l0.002-0.008c-0.005 0.018-0.010 0.036-0.015 0.053l-0 0c-0.003 0.009-0.007 0.019-0.010 0.028 0 0 0 0-0 0-0.042 0.117-0.096 0.218-0.163 0.31l0.002-0.003 6.223 13.625 4.063-8.895z"></path>
<path fill="#08aa6e" style="fill: var(--color2, #08aa6e)" d="M24.426 10.277c0.003-0.071 0.005-0.143 0.005-0.215 0-2.69-2.181-4.871-4.871-4.871s-4.871 2.181-4.871 4.871c0 0.072 0.002 0.143 0.005 0.215h9.731z"></path>
<path fill="#c66500" style="fill: var(--color3, #c66500)" d="M12.439 5.192c1.325 0 2.526 0.53 3.404 1.389 0.053 0.052 0.104 0.104 0.154 0.157l0.002 0.003c0.052-0.056 0.103-0.108 0.155-0.158l0.001-0.001c0.878-0.859 2.079-1.389 3.404-1.389 0.309 0 0.611 0.029 0.904 0.084l-0.030-0.005c0.009-0.104 0.015-0.225 0.015-0.347v-0.001c0-2.457-1.992-4.449-4.449-4.449s-4.449 1.992-4.449 4.449c0 0.117 0.006 0.233 0.015 0.347 0.263-0.050 0.565-0.079 0.874-0.080h0z"></path>
<path fill="#ffe285" style="fill: var(--color4, #ffe285)" d="M16 6.74c-0.889-0.952-2.155-1.549-3.56-1.549-2.69 0-4.871 2.181-4.871 4.871v6.457c0 0.674 0.546 1.22 1.22 1.22s1.22-0.546 1.22-1.22l0-5.216c0.089-0.581 0.59-1.027 1.196-1.027l3.49-0c-0.003-0.063-0.005-0.138-0.005-0.214v-0.001c-0-1.284 0.498-2.452 1.31-3.322z"></path>
<path fill="#53180f" style="fill: var(--color5, #53180f)" d="M24.906 10.063c0-0.055-0.003-0.108-0.004-0.163l0-0.098h-0.003c-0.114-2.362-1.767-4.326-3.976-4.909-0.017-2.701-2.218-4.894-4.923-4.894s-4.906 2.192-4.923 4.892c-0.906 0.237-1.737 0.71-2.417 1.39-1.010 1.010-1.566 2.352-1.566 3.78v6.457c0 0.453 0.176 0.878 0.496 1.198s0.746 0.496 1.198 0.496h0c0.297 0 0.576-0.077 0.818-0.211l6.393 13.997 4.495-9.841-0.864-0.395-3.631 7.95-5.688-12.453c0.017-0.035 0.032-0.070 0.047-0.105l0.025-0.033 0.013-0.071c0.021-0.064 0.039-0.129 0.052-0.195l0.003-0.009 0.003-0.026c0.006-0.035 0.012-0.070 0.016-0.105l0.049-0.191-0.037-0.048 0-5.133c0.026-0.131 0.084-0.246 0.165-0.34l-0.001 0.001c0.135-0.157 0.335-0.253 0.557-0.253l12.745-0-0.004 1.198h-11.387v0.95h11.122l-3.458 7.57 0.864 0.395 3.807-8.336 0.008-2.242c0.003-0.066 0.005-0.145 0.005-0.223v-0.001zM23.949 9.802h-8.776c0.002-0.034 0.004-0.069 0.007-0.103 0.002-0.022 0.003-0.045 0.005-0.067 0.005-0.056 0.012-0.112 0.020-0.168 0.001-0.009 0.002-0.019 0.004-0.029 0.127-0.884 0.52-1.709 1.138-2.372v-0c0.047-0.050 0.093-0.097 0.14-0.143l0.001-0.001c0.723-0.707 1.649-1.137 2.643-1.233 0.005-0 0.009-0.001 0.014-0.001 0.066-0.006 0.133-0.011 0.2-0.014 0.049-0.002 0.107-0.004 0.166-0.004h0.001c0.016-0 0.033-0.001 0.049-0.001 0.068 0 0.135 0.002 0.202 0.005 0.069 0.003 0.126 0.008 0.184 0.013l-0.017-0.001c0.009 0.001 0.018 0.001 0.027 0.002 0.131 0.012 0.262 0.030 0.393 0.054l0.079 0.014c1.927 0.388 3.403 2.039 3.52 4.050zM12.030 4.733c0.1-2.103 1.842-3.783 3.97-3.783s3.87 1.68 3.97 3.783c-0.022-0.002-0.044-0.002-0.066-0.004-0.035-0.002-0.070-0.005-0.105-0.006-0.071-0.004-0.154-0.006-0.238-0.006h-0.001c-0.086 0-0.171 0.002-0.256 0.006-0.034 0.002-0.067 0.005-0.1 0.007-0.051 0.003-0.102 0.006-0.153 0.011-0.043 0.004-0.085 0.010-0.127 0.015-0.041 0.005-0.081 0.009-0.122 0.015-0.048 0.007-0.096 0.015-0.143 0.023-0.034 0.006-0.068 0.011-0.102 0.018-0.052 0.010-0.104 0.021-0.155 0.032-0.028 0.006-0.057 0.012-0.085 0.019-0.055 0.013-0.11 0.027-0.165 0.042-0.023 0.006-0.047 0.013-0.070 0.019-0.114 0.032-0.191 0.057-0.267 0.083l0.037-0.011c-0.177 0.059-0.315 0.113-0.45 0.173l0.034-0.013c-0.008 0.003-0.016 0.007-0.024 0.011-0.102 0.044-0.169 0.076-0.236 0.109l0.032-0.014-0.002 0.001c-0.461 0.229-0.858 0.501-1.212 0.819l0.005-0.004c-0.005-0.005-0.011-0.009-0.016-0.014-0.042-0.037-0.089-0.078-0.137-0.118l-0.009-0.007c-0.025-0.020-0.050-0.040-0.075-0.060-0.009-0.007-0.028-0.022-0.047-0.037l-0.012-0.009c-0.731-0.572-1.633-0.958-2.617-1.075l-0.025-0.002c-0.027-0.003-0.054-0.006-0.082-0.009-0.070-0.008-0.166-0.015-0.262-0.020l-0.014-0.001c-0.015-0.001-0.030-0.001-0.045-0.002-0.065-0.003-0.141-0.005-0.218-0.005h-0.001c-0.076 0-0.153 0.002-0.23 0.006-0.042 0.002-0.083 0.005-0.124 0.007-0.018 0.001-0.037 0.002-0.055 0.003zM8.789 17.265c-0.199 0-0.386-0.078-0.527-0.218-0.135-0.134-0.218-0.32-0.218-0.525 0-0.001 0-0.001 0-0.002v0-6.457c0-1.174 0.457-2.278 1.288-3.109 0.615-0.615 1.38-1.025 2.213-1.196l0.106-0.019c0.237-0.045 0.51-0.072 0.789-0.072h0c0.071 0 0.142 0.002 0.212 0.005 0.012 0 0.023 0.002 0.035 0.002 0.060 0.003 0.119 0.007 0.179 0.013 0.008 0.001 0.015 0.002 0.022 0.003 0.086 0.008 0.153 0.017 0.219 0.027l-0.024-0.003c0.84 0.123 1.623 0.487 2.267 1.057l-0.002 0.002c-0.52 0.657-0.89 1.455-1.047 2.327l-0.005 0.032c-0.005 0.026-0.009 0.052-0.014 0.079-0.010 0.053-0.021 0.138-0.031 0.224l-0.002 0.025c-0.004 0.036-0.008 0.072-0.012 0.109-0.005 0.044-0.009 0.11-0.013 0.176l-0.001 0.015c-0.001 0.014-0.002 0.028-0.003 0.043l-0 0.001-3.016 0c-0.613 0-1.151 0.322-1.446 0.819-0.029 0.047-0.059 0.102-0.086 0.16l-0.004 0.010c-0 0.001-0.001 0.002-0.001 0.003-0.058 0.126-0.103 0.273-0.127 0.427l-0.001 0.010-0.005 0.036-0 5.252-0 0.003c-0 0.021-0.001 0.041-0.003 0.062l-0 0.004-0.003 0.024c-0.002 0.015-0.004 0.029-0.007 0.043l-0.001 0.004c-0.003 0.017-0.008 0.036-0.014 0.057l-0.020 0.061c-0.025 0.068-0.057 0.127-0.096 0.18l0.002-0.002-0.002 0.003c-0.136 0.185-0.354 0.307-0.601 0.307z"></path>
</symbol><symbol id="close" viewBox="0 0 32 32"><path d="m26.667 7.303-1.97-1.97-7.808 7.808-7.808-7.808-1.97 1.97 7.808 7.808-7.808 7.808 1.97 1.97 7.808-7.808 7.808 7.808 1.97-1.97-7.808-7.808 7.808-7.808z"/></symbol>
</defs>
</svg>
